<svg id="visual" viewBox="0 0 960 540" width="960" height="540" xmlns="http://www.w3.org/2000/svg" xmlns:xlink="http://www.w3.org/1999/xlink" version="1.1"><rect x="0" y="0" width="960" height="540" fill="#06113C"></rect><defs><linearGradient id="grad1_0" x1="43.8%" y1="100%" x2="100%" y2="0%"><stop offset="14.444444444444446%" stop-color="#06113c" stop-opacity="1"></stop><stop offset="85.55555555555554%" stop-color="#06113c" stop-opacity="1"></stop></linearGradient></defs><defs><linearGradient id="grad2_0" x1="0%" y1="100%" x2="56.3%" y2="0%"><stop offset="14.444444444444446%" stop-color="#06113c" stop-opacity="1"></stop><stop offset="85.55555555555554%" stop-color="#06113c" stop-opacity="1"></stop></linearGradient></defs><g transform="translate(960, 540)"><path d="M-189 0C-174.1 -19.4 -159.2 -38.7 -152.4 -63.1C-145.7 -87.6 -147.2 -117.1 -133.6 -133.6C-120.1 -150.2 -91.4 -153.7 -66.6 -160.8C-41.8 -167.8 -20.9 -178.4 0 -189L0 0Z" fill="#031353"></path></g><g transform="translate(0, 0)"><path d="M189 0C171.8 20 154.7 40 144.1 59.7C133.6 79.4 129.6 98.6 119.5 119.5C109.4 140.4 93.3 162.8 72.3 174.6C51.4 186.5 25.7 187.7 0 189L0 0Z" fill="#031353"></path></g></svg>