<svg id="visual" viewBox="0 0 960 540" width="960" height="540" xmlns="http://www.w3.org/2000/svg" xmlns:xlink="http://www.w3.org/1999/xlink" version="1.1"><rect x="0" y="0" width="960" height="540" fill="#06113C"></rect><defs><linearGradient id="grad1_0" x1="43.8%" y1="0%" x2="100%" y2="100%"><stop offset="14.444444444444446%" stop-color="#06113c" stop-opacity="1"></stop><stop offset="85.55555555555554%" stop-color="#06113c" stop-opacity="1"></stop></linearGradient></defs><defs><linearGradient id="grad2_0" x1="0%" y1="0%" x2="56.3%" y2="100%"><stop offset="14.444444444444446%" stop-color="#06113c" stop-opacity="1"></stop><stop offset="85.55555555555554%" stop-color="#06113c" stop-opacity="1"></stop></linearGradient></defs><g transform="translate(960, 0)"><path d="M0 189C-19.4 174.1 -38.7 159.2 -63.1 152.4C-87.6 145.7 -117.1 147.2 -133.6 133.6C-150.2 120.1 -153.7 91.4 -160.8 66.6C-167.8 41.8 -178.4 20.9 -189 0L0 0Z" fill="#031353"></path></g><g transform="translate(0, 540)"><path d="M0 -189C20 -171.8 40 -154.7 59.7 -144.1C79.4 -133.6 98.6 -129.6 119.5 -119.5C140.4 -109.4 162.8 -93.3 174.6 -72.3C186.5 -51.4 187.7 -25.7 189 0L0 0Z" fill="#031353"></path></g></svg>